# xmcd
#
# Track frame offsets: 
#        150
#        16315
#        41173
#        59906
#        78525
#        95026
#        110802
#        129949
#        146933
#        161753
#        183411
#        203925
#        215604
#        228280
#        254274
#
# Disc length: 3639 seconds
#
# Revision: 0
# Processed by: cddbd v1.5.2PL0 Copyright (c) Steve Scherf et al.
# Submitted via: ExactAudioCopyFreeDBPlugin 1.0
#
DISCID=e70e350f
DTITLE=Elijah Blake - Shadows and Diamonds (Deluxe Edition)
DYEAR=2015
DGENRE=R&B
TTITLE0=Shadows and Diamonds
TTITLE1=Everyday
TTITLE2=The Otherside
TTITLE3=I Just Wanna...
TTITLE4=Fading
TTITLE5=Uno
TTITLE6=Pinot
TTITLE7=Live Till We Die
TTITLE8=Bout That Life
TTITLE9=Drop Dead Beautiful
TTITLE10=All Black Everything
TTITLE11=Armageddon
TTITLE12=Rockabye
TTITLE13=Angel Dust
TTITLE14=I Just Wanna... (feat. Dej Loaf)
EXTD=
EXTT0=
EXTT1=
EXTT2=
EXTT3=
EXTT4=
EXTT5=
EXTT6=
EXTT7=
EXTT8=
EXTT9=
EXTT10=
EXTT11=
EXTT12=
EXTT13=
EXTT14=
PLAYORDER=
